<svg id="visual" viewBox="0 0 1800 1200" width="1800" height="1200" xmlns="http://www.w3.org/2000/svg" xmlns:xlink="http://www.w3.org/1999/xlink" version="1.1"><path d="M0 121L120 181L240 205L360 205L480 61L600 85L720 85L840 193L960 49L1080 37L1200 157L1320 97L1440 193L1560 193L1680 121L1800 145L1800 0L1680 0L1560 0L1440 0L1320 0L1200 0L1080 0L960 0L840 0L720 0L600 0L480 0L360 0L240 0L120 0L0 0Z" fill="#202225"></path><path d="M0 301L120 253L240 325L360 385L480 121L600 229L720 265L840 337L960 157L1080 73L1200 205L1320 217L1440 253L1560 337L1680 277L1800 181L1800 143L1680 119L1560 191L1440 191L1320 95L1200 155L1080 35L960 47L840 191L720 83L600 83L480 59L360 203L240 203L120 179L0 119Z" fill="#263c49"></path><path d="M0 481L120 457L240 817L360 469L480 673L600 589L720 673L840 697L960 325L1080 661L1200 469L1320 409L1440 793L1560 517L1680 661L1800 445L1800 179L1680 275L1560 335L1440 251L1320 215L1200 203L1080 71L960 155L840 335L720 263L600 227L480 119L360 383L240 323L120 251L0 299Z" fill="#195a6a"></path><path d="M0 613L120 637L240 961L360 541L480 769L600 793L720 733L840 925L960 445L1080 709L1200 553L1320 613L1440 865L1560 613L1680 769L1800 649L1800 443L1680 659L1560 515L1440 791L1320 407L1200 467L1080 659L960 323L840 695L720 671L600 587L480 671L360 467L240 815L120 455L0 479Z" fill="#007a82"></path><path d="M0 1117L120 889L240 1141L360 901L480 973L600 997L720 1021L840 997L960 1009L1080 1093L1200 1069L1320 901L1440 1045L1560 937L1680 1033L1800 889L1800 647L1680 767L1560 611L1440 863L1320 611L1200 551L1080 707L960 443L840 923L720 731L600 791L480 767L360 539L240 959L120 635L0 611Z" fill="#009a8a"></path><path d="M0 1201L120 1201L240 1201L360 1201L480 1201L600 1201L720 1201L840 1201L960 1201L1080 1201L1200 1201L1320 1201L1440 1201L1560 1201L1680 1201L1800 1201L1800 887L1680 1031L1560 935L1440 1043L1320 899L1200 1067L1080 1091L960 1007L840 995L720 1019L600 995L480 971L360 899L240 1139L120 887L0 1115Z" fill="#10b981"></path></svg>