<svg id="visual" viewBox="0 0 1800 1200" width="1800" height="1200" xmlns="http://www.w3.org/2000/svg" xmlns:xlink="http://www.w3.org/1999/xlink" version="1.1"><path d="M0 61L120 121L240 85L360 121L480 133L600 109L720 181L840 61L960 181L1080 169L1200 73L1320 97L1440 169L1560 193L1680 97L1800 85L1800 0L1680 0L1560 0L1440 0L1320 0L1200 0L1080 0L960 0L840 0L720 0L600 0L480 0L360 0L240 0L120 0L0 0Z" fill="#202225"></path><path d="M0 301L120 301L240 469L360 577L480 577L600 505L720 373L840 325L960 601L1080 457L1200 289L1320 325L1440 709L1560 445L1680 301L1800 457L1800 83L1680 95L1560 191L1440 167L1320 95L1200 71L1080 167L960 179L840 59L720 179L600 107L480 131L360 119L240 83L120 119L0 59Z" fill="#263c49"></path><path d="M0 529L120 613L240 673L360 721L480 721L600 697L720 505L840 553L960 697L1080 709L1200 445L1320 577L1440 817L1560 565L1680 553L1800 577L1800 455L1680 299L1560 443L1440 707L1320 323L1200 287L1080 455L960 599L840 323L720 371L600 503L480 575L360 575L240 467L120 299L0 299Z" fill="#195a6a"></path><path d="M0 925L120 1009L240 949L360 925L480 973L600 973L720 961L840 889L960 973L1080 973L1200 853L1320 961L1440 1057L1560 1033L1680 853L1800 985L1800 575L1680 551L1560 563L1440 815L1320 575L1200 443L1080 707L960 695L840 551L720 503L600 695L480 719L360 719L240 671L120 611L0 527Z" fill="#007a82"></path><path d="M0 1069L120 1081L240 1045L360 1129L480 1141L600 1045L720 1141L840 1057L960 1033L1080 1093L1200 1045L1320 1141L1440 1141L1560 1117L1680 1057L1800 1069L1800 983L1680 851L1560 1031L1440 1055L1320 959L1200 851L1080 971L960 971L840 887L720 959L600 971L480 971L360 923L240 947L120 1007L0 923Z" fill="#009a8a"></path><path d="M0 1201L120 1201L240 1201L360 1201L480 1201L600 1201L720 1201L840 1201L960 1201L1080 1201L1200 1201L1320 1201L1440 1201L1560 1201L1680 1201L1800 1201L1800 1067L1680 1055L1560 1115L1440 1139L1320 1139L1200 1043L1080 1091L960 1031L840 1055L720 1139L600 1043L480 1139L360 1127L240 1043L120 1079L0 1067Z" fill="#10b981"></path></svg>